<svg xmlns="http://www.w3.org/2000/svg" viewBox="0 0 40 40"><path d="M20 1a19 19 0 107.4 1.49A19 19 0 0020 1m0-1A20 20 0 110 20 20 20 0 0120 0zm5.23 22.15a1.76 1.76 0 00-1.23-.59 1.78 1.78 0 00-1.3.59l-1.2 1.2-.3-.16c-.13-.06-.25-.13-.37-.2a12.86 12.86 0 01-3.13-2.85 7.94 7.94 0 01-1-1.62l.9-.86.32-.33a1.74 1.74 0 00.09-2.45l-.17-.18-2.07-2.07a1.8 1.8 0 00-1.33-.63 1.84 1.84 0 00-1.29.56l-1.3 1.3a2.8 2.8 0 00-.85 1.82 6.8 6.8 0 00.49 2.82 16.35 16.35 0 002.91 4.84 18.08 18.08 0 006 4.66 9.35 9.35 0 003.35 1H24a2.86 2.86 0 002.2-.94q.32-.36.66-.7c.17-.15.33-.32.5-.5a1.92 1.92 0 00.57-1.31 1.85 1.85 0 00-.58-1.3zm1.37 4l-.47.46a8.73 8.73 0 00-.73.76A1.86 1.86 0 0124 28h-.18a8.08 8.08 0 01-3-.89 16.68 16.68 0 01-5.61-4.39 15.43 15.43 0 01-2.74-4.55 5.41 5.41 0 01-.47-2.41 1.69 1.69 0 01.53-1.12l1.3-1.3a.74.74 0 01.57-.27.8.8 0 01.56.26l.7.68.36.37 1 1a.71.71 0 01.18 1 .69.69 0 01-.17.17l-.32.32a11 11 0 01-1 .93.77.77 0 00-.2.86 8.38 8.38 0 001.22 2 13.92 13.92 0 003.38 3.07 4.23 4.23 0 00.47.25l.38.2a.85.85 0 00.38.09.83.83 0 00.57-.27l1.3-1.3a.89.89 0 01.57-.28.79.79 0 01.55.27L26.6 25a.75.75 0 01.15 1 .54.54 0 01-.15.15zm-5.87-10.87a4.89 4.89 0 014 4 .51.51 0 00.5.43h.1a.51.51 0 00.42-.59 5.93 5.93 0 00-4.82-4.82.52.52 0 00-.57.45.5.5 0 00.38.55zM29 18.94A9.7 9.7 0 0021.05 11a.51.51 0 00-.54.48.52.52 0 00.37.52A8.7 8.7 0 0128 19.11a.52.52 0 00.51.42h.1A.5.5 0 0029 19z" fill="#3bb3c2"/></svg>